<svg xmlns="http://www.w3.org/2000/svg" width="328.356" height="591.022" viewBox="0 0 328.356 591.022">
  <path id="_3556030641599230695" data-name="3556030641599230695" d="M448.836,150.139V54.078H369.42a62.579,62.579,0,0,0-52.661-29.341,61.651,61.651,0,0,0-31.544,8.673,62.393,62.393,0,0,0-46.053-20.6c-26.306,0-49.583,16.876-58.508,41.268H120.845V181.4h.469v13.347a446.666,446.666,0,0,0,22.319,139.428l33.08,100.677a210.908,210.908,0,0,1,10.539,65.836V603.832h58.771s78.47-1.075,78.47,0h58.771V500.691A210.907,210.907,0,0,1,393.8,434.855l33.079-100.677A446.667,446.667,0,0,0,449.2,194.749V150.142ZM198.778,77.126l1.863-9.248c3.736-18.553,19.937-32.019,38.52-32.019A38.92,38.92,0,0,1,272.88,55.332l7.209,12.213,10.479-9.556a38.813,38.813,0,0,1,26.19-10.2A39.52,39.52,0,0,1,352.2,70.526l3.119,6.6h70.469v73c-60.634-.011-222.206,0-281.9.011V77.126Zm49.133,314.53a30.8,30.8,0,1,1,30.8-30.8A30.8,30.8,0,0,1,247.911,391.656Zm31.394-163.33a10.772,10.772,0,1,1,10.772-10.772A10.772,10.772,0,0,1,279.305,228.326Zm81.551,57.723a23.237,23.237,0,1,1,23.237-23.237A23.237,23.237,0,0,1,360.857,286.049Z" transform="translate(-120.844 -12.811)" fill="#eabf45"/>
</svg>
