<svg id="_9911538611599230692" data-name="9911538611599230692" xmlns="http://www.w3.org/2000/svg" width="446.834" height="568.08" viewBox="0 0 446.834 568.08">
  <rect id="Rectangle_10" data-name="Rectangle 10" width="46.58" height="46.58" transform="matrix(0.329, -0.945, 0.945, 0.329, 244.285, 285.939)" fill="#fff"/>
  <rect id="Rectangle_11" data-name="Rectangle 11" width="46.58" height="46.58" transform="translate(136.729 322.245) rotate(-40.145)" fill="#fff"/>
  <rect id="Rectangle_12" data-name="Rectangle 12" width="20.968" height="20.969" transform="matrix(0.329, -0.945, 0.945, 0.329, 145.012, 216.787)" fill="#fff"/>
  <path id="Path_11" data-name="Path 11" d="M503.982,71.4l5.3-19.311L344.039,6.719,342.564,6.3,317.216,95.966H114.091L72.872,240.232c-2.444,6.95-28.337,84.6,12.03,142.641,27.215,39.129,77.416,59.265,149.208,59.849H266.5v79.562c-47.11,2-88.589,15.24-115.848,34.929-7.469,5.394-3.735,17.168,5.478,17.168H401.852c9.213,0,12.947-11.774,5.478-17.168-27.775-20.061-70.307-33.431-118.521-35.039V442.723h30.51c71.792-.583,121.992-20.72,149.208-59.849C508.895,324.835,483,247.182,480.557,240.232L439.338,95.966H338.027l18.4-65.079Zm-298.8,112.957,47.9,16.665-16.665,47.9-47.9-16.664Zm22.256,200.748-49.209-58.344,58.345-49.209,49.21,58.345ZM384.96,254.4,359.879,326.49l-72.086-25.081,25.081-72.087Z" transform="translate(-62.45 -6.302)" fill="#fff"/>
</svg>
