<svg id="_12563293031599230694" data-name="12563293031599230694" xmlns="http://www.w3.org/2000/svg" width="487.658" height="632.701" viewBox="0 0 487.658 632.701">
  <path id="Path_5" data-name="Path 5" d="M551.674,112.423a105.528,105.528,0,0,0-210.639-9.361H64.016l1.157,223.777a41.414,41.414,0,0,0,11.693,28.841h0A41.415,41.415,0,0,1,88.56,384.52L87.5,617.126a22.366,22.366,0,0,0,22.366,22.468H403.109a22.367,22.367,0,0,0,22.366-22.265l1.056-232.81a41.414,41.414,0,0,1,11.693-28.841,41.412,41.412,0,0,0,11.693-28.841L449.354,217.9A105.653,105.653,0,0,0,551.674,112.423ZM237.468,584.043l-69.034-51.121,51.12-69.035,69.035,51.121Zm73.686-94.764L286.19,440.438l48.841-24.964,24.964,48.841ZM427.7,265.376H87.787v-139H427.7Zm21.529-71.909-.146-28.18h13.6l-8.843-49.509-4.877,27.306-.207-40.021h-44.4l29.136-5.2-49.51-8.843v14.047h-18.4a81.106,81.106,0,1,1,83.647,90.4Z" transform="translate(-64.016 -6.893)" fill="#fff"/>
  <path id="Path_6" data-name="Path 6" d="M362.686,35.023l8.843,49.51,8.843-49.51Z" transform="translate(17.049 0.741)" fill="#fff"/>
  <path id="Path_7" data-name="Path 7" d="M329.48,55.1l41.261,28.756L341.985,42.6Z" transform="translate(8.036 2.797)" fill="#fff"/>
  <path id="Path_8" data-name="Path 8" d="M376.794,81.2l49.51,8.842V72.359Z" transform="translate(20.878 10.875)" fill="#fff"/>
  <path id="Path_9" data-name="Path 9" d="M403.361,129.676l12.505-12.506L374.606,88.415Z" transform="translate(20.284 15.233)" fill="#fff"/>
  <path id="Path_10" data-name="Path 10" d="M402.378,43,373.622,84.265,414.883,55.51Z" transform="translate(20.017 2.908)" fill="#fff"/>
</svg>
