<svg xmlns="http://www.w3.org/2000/svg" width="198.345" height="212.523" viewBox="0 0 198.345 212.523">
  <path id="_25032692316276583113772" data-name="25032692316276583113772" d="M204.385,10.492a8.128,8.128,0,0,0-7.314-4.632H14.9A8.127,8.127,0,0,0,8.6,19.066L98,128.985v73.144H77.684a8.127,8.127,0,0,0,0,16.254h56.849a8.127,8.127,0,1,0,0-16.254H114.216V128.985L174.6,54.5a7.545,7.545,0,0,0,.691-.894l28.079-34.54a8.129,8.129,0,0,0,1.016-8.574ZM164.929,40.644H47.086L31.929,22.073H180Z" transform="translate(-6.821 -5.86)" fill="#fff"/>
</svg>
