<svg xmlns="http://www.w3.org/2000/svg" width="337.192" height="568.08" viewBox="0 0 337.192 568.08">
  <path id="_15252778431595501339_1_" data-name="15252778431595501339 (1)" d="M289.92,312.676c38.155-33.915,57.232-82.668,55.112-133.541v-8.479h0c-2.12-16.958-4.239-36.035-10.6-52.993L294.16,15.918C292.04,7.439,283.561,3.2,275.082,3.2H77.95c-8.479,0-16.958,6.359-19.077,12.718L20.718,117.664A149.619,149.619,0,0,0,8,177.015H8v6.359c0,48.753,19.077,95.387,55.112,127.182,27.556,25.436,59.352,38.155,91.147,42.394v86.908c0,42.394-27.556,78.429-67.83,89.027-10.6,2.12-16.958,12.718-16.958,23.317,2.12,10.6,10.6,19.077,21.2,19.077H260.244c2.12,0,4.239,0,8.479-2.12a2.076,2.076,0,0,0,2.12-2.12c2.12,0,2.12-2.12,4.239-2.12l2.12-2.12c0-2.12,2.12-2.12,2.12-4.24a2.076,2.076,0,0,1,2.12-2.12V543.724c0-2.12,0-2.12-2.12-4.239,0-2.12-2.12-2.12-2.12-4.239a2.076,2.076,0,0,0-2.12-2.12s-2.12-2.12-4.239-2.12-2.12-2.12-4.239-2.12h-2.12c-40.274-10.6-67.83-46.633-67.83-89.027V352.95C232.688,350.831,264.484,335.993,289.92,312.676ZM94.908,43.474H262.364L296.279,132.5l6.359,25.436c-46.633,6.359-95.387,10.6-146.259,10.6a828.338,828.338,0,0,1-103.865-6.359c2.12-10.6,4.239-19.077,6.359-29.676Z" transform="translate(-8 -3.2)" fill="#fff"/>
</svg>
