<svg xmlns="http://www.w3.org/2000/svg" width="659.585" height="79.385" viewBox="0 0 659.585 79.385">
  <g id="Group_26" data-name="Group 26" transform="translate(1659.827 -1267.531)">
    <path id="Union_2" data-name="Union 2" d="M2340.478-1482.5a8.579,8.579,0,0,1-3.591-3.038,7.287,7.287,0,0,1-1.224-4.025,7.924,7.924,0,0,1,.316-2.092,5.044,5.044,0,0,1,1.895-2.722,5.221,5.221,0,0,1,3.157-.948,6.157,6.157,0,0,1,4.735,2.012,9.477,9.477,0,0,1,2.368,5.446,11.375,11.375,0,0,0,7.458-3.472,8.523,8.523,0,0,1-4.775-2.171,9.333,9.333,0,0,1-2.091-5.011l-2.526-15.469a4.076,4.076,0,0,0-.552-1.7,1.092,1.092,0,0,0-.908-.473,1.77,1.77,0,0,0-1.026.473,2.073,2.073,0,0,1-.867.435q-.513,0-.513-1.066a6.235,6.235,0,0,1,.315-1.895,12.607,12.607,0,0,1,4.223-6.116,11.246,11.246,0,0,1,7.222-2.486q4.024,0,5.959,2.407t2.486,7.38l1.895,13.891q.2,1.578,1.144,1.578,1.145,0,2.644-2.052a23.856,23.856,0,0,0,2.959-5.84,11.5,11.5,0,0,1-2.88-3.907,11.092,11.092,0,0,1-1.026-4.735,11.463,11.463,0,0,1,.513-3.551,7.475,7.475,0,0,1,2.367-3.829,5.754,5.754,0,0,1,3.631-1.263,5.356,5.356,0,0,1,4.459,2.21,10.1,10.1,0,0,1,1.657,6.116,24.36,24.36,0,0,1-1.183,7.182,46.331,46.331,0,0,1-7.5,14.64,42.929,42.929,0,0,1-11.8,11.049,24.869,24.869,0,0,1-13.3,4.183A12.849,12.849,0,0,1,2340.478-1482.5Zm204.408.112c-.1,0-.209,0-.313-.005a6.438,6.438,0,0,1-6.035-5.44,3.815,3.815,0,0,1-.045-.661,3.668,3.668,0,0,1,3.705-3.63,3.668,3.668,0,0,1,3.566,3.767,3.667,3.667,0,0,1-3.7,3.63,3.679,3.679,0,0,1-.481-.041c1.084,1.894,5.289,1.334,6.484.524,2.431-1.647,2.8-5.231,2.248-7.835l-1.114-5.255c-7.883,2.017-16.672-4.442-15.969-13.1.554-6.827,5.781-11.647,9.929-15.395l-.557-2.63c-1.272-6-.778-9.132.551-12.252,3.96-9.3,10.222-1.929,8.3,7.522-.932,4.588-3.34,8.27-6.2,11.677l1.389,6.412c2.595-.479,5.53.391,8.031,3.554,3.2,4.045.729,11.759-4.267,13.819l1.1,5.09c1.507,6.323-1.631,10.248-6.62,10.248Zm-6.335-31.729c-3.819,4.31-2.3,10.315,1.136,13.432a9.729,9.729,0,0,0,9.215,1.961l-2.575-12.146c-2.335.532-4.174,2.641-3.489,6.655.186,1.1,1.191,2,2.667,3.157-9.091-3.1-5.8-11.717-.01-13.736l-1.19-5.615C2542.436-1518.289,2540.432-1516.245,2538.551-1514.122Zm8.977,3.11,2.557,11.8a5.579,5.579,0,0,0,2.675-2.735c2.424-5.68-1.55-9.065-5.2-9.065Zm-3.476-25.161c-.491,1.371-1.181,3.67-.263,7.911l.336,1.549a19.1,19.1,0,0,0,3.727-4.063c3.128-5.6,2.029-8.724,1.575-9.391a.979.979,0,0,0-.855-.389C2547.266-1540.556,2545.068-1539.013,2544.052-1536.173Zm-46.516,41.476a6.469,6.469,0,0,1-2.525-5.17,14.58,14.58,0,0,1,1.145-5.249l3.472-9.076a3.985,3.985,0,0,0,.316-1.341,1.579,1.579,0,0,0-.553-1.263,1.843,1.843,0,0,0-1.3-.474,3.521,3.521,0,0,0-2.21.948,8.417,8.417,0,0,0-2.012,2.959l-3.472,11.286a1.942,1.942,0,0,0-.119.75.969.969,0,0,0,.237.711.73.73,0,0,0,.592.237,1.679,1.679,0,0,0,1.3-.632q.513-.671.71-.671a.586.586,0,0,1,.513.394,2.363,2.363,0,0,1,.2.986,5.752,5.752,0,0,1-1.223,3.552,9.106,9.106,0,0,1-3.67,2.841,14.111,14.111,0,0,1-5.84,1.1,10.562,10.562,0,0,1-6.629-1.894,6.323,6.323,0,0,1-2.525-5.17,15.036,15.036,0,0,1,1.1-5.249l3.473-9.076a3.985,3.985,0,0,0,.316-1.341,1.634,1.634,0,0,0-.513-1.263,1.937,1.937,0,0,0-1.3-.474,3.6,3.6,0,0,0-2.209.908,6.542,6.542,0,0,0-1.895,2.92l-4.183,13.535a3.911,3.911,0,0,0-.237,1.3,2.164,2.164,0,0,0,.316,1.223,5.677,5.677,0,0,0,.868.986,2.444,2.444,0,0,1,.632.711.911.911,0,0,1,.079.75,1.776,1.776,0,0,1-1.185,1.183,8.361,8.361,0,0,1-3,.4h-14.364a3.919,3.919,0,0,1-2.368-.553,1.262,1.262,0,0,1-.553-1.421,2.4,2.4,0,0,1,1.342-1.3,5.757,5.757,0,0,0,1.579-1.223,5.385,5.385,0,0,0,1.066-2.209l5.6-18.232a2.567,2.567,0,0,0,.118-.868,1.905,1.905,0,0,0-.276-1.105,8.953,8.953,0,0,0-.907-.947,3.354,3.354,0,0,1-.868-.869,1.137,1.137,0,0,1-.079-1.026q.4-1.42,3.986-2.525a25.365,25.365,0,0,1,7.5-1.105,6.793,6.793,0,0,1,4.893,1.7,5.833,5.833,0,0,1,1.736,4.657,15.15,15.15,0,0,1,5.485-4.973,13.979,13.979,0,0,1,6.2-1.381,8.492,8.492,0,0,1,5.959,2.092,7.944,7.944,0,0,1,2.565,5.525,16.579,16.579,0,0,1,5.8-5.959,14.233,14.233,0,0,1,6.788-1.658,8.46,8.46,0,0,1,6.2,2.328,8.1,8.1,0,0,1,2.367,6.038,12.142,12.142,0,0,1-.631,3.867l-3.828,12.43a1.515,1.515,0,0,0-.158.75.969.969,0,0,0,.237.711.806.806,0,0,0,.592.237,1.681,1.681,0,0,0,1.3-.632c.368-.447.606-.671.71-.671a.586.586,0,0,1,.513.394,2.36,2.36,0,0,1,.2.986,5.551,5.551,0,0,1-1.184,3.552,9.066,9.066,0,0,1-3.709,2.841,14.119,14.119,0,0,1-5.841,1.1A10.561,10.561,0,0,1,2497.536-1494.7Zm-66.178,0a6.471,6.471,0,0,1-2.525-5.17,14.58,14.58,0,0,1,1.145-5.249l3.472-9.076a3.985,3.985,0,0,0,.316-1.341,1.579,1.579,0,0,0-.552-1.263,1.792,1.792,0,0,0-1.263-.474,3.686,3.686,0,0,0-2.447,1.105,7.787,7.787,0,0,0-1.973,3.551v-.118l-3.985,12.825a5.236,5.236,0,0,0-.2,1.3,2.326,2.326,0,0,0,.316,1.3,3.986,3.986,0,0,0,.869.907,2.9,2.9,0,0,1,.632.75.808.808,0,0,1,.078.711,2.019,2.019,0,0,1-1.263,1.183,8.071,8.071,0,0,1-2.92.4h-14.364a4.114,4.114,0,0,1-2.407-.553,1.206,1.206,0,0,1-.513-1.421,2.4,2.4,0,0,1,1.341-1.3,5.735,5.735,0,0,0,1.579-1.223,5.379,5.379,0,0,0,1.066-2.209l9.589-31.491a2.9,2.9,0,0,0,.2-.947,1.747,1.747,0,0,0-.356-1.145,5.824,5.824,0,0,0-.907-.869,4.806,4.806,0,0,1-.907-.907.969.969,0,0,1-.119-.986q.394-1.461,3.985-2.525a26.2,26.2,0,0,1,7.5-1.066q3.671,0,5.406,1.38a4.58,4.58,0,0,1,1.737,3.789,8.783,8.783,0,0,1-.435,2.723l-3.394,11.089a14.184,14.184,0,0,1,5.209-4.459,13.993,13.993,0,0,1,5.959-1.263,8.46,8.46,0,0,1,6.2,2.328,8.1,8.1,0,0,1,2.368,6.038,12.149,12.149,0,0,1-.632,3.867l-3.828,12.43a1.943,1.943,0,0,0-.118.75,1.094,1.094,0,0,0,.2.711.8.8,0,0,0,.591.237,1.606,1.606,0,0,0,1.3-.632q.553-.671.75-.671.316,0,.474.394a2.36,2.36,0,0,1,.2.986,5.551,5.551,0,0,1-1.185,3.552,9.064,9.064,0,0,1-3.709,2.841,13.944,13.944,0,0,1-5.84,1.1A10.667,10.667,0,0,1,2431.358-1494.7Zm-47.866-.04a6.409,6.409,0,0,1-2.565-5.367,9.072,9.072,0,0,1,.513-3.038l4.025-12.51a6.339,6.339,0,0,0,.316-1.7,3.7,3.7,0,0,0-.592-2.131,9.026,9.026,0,0,0-1.7-1.855,7.268,7.268,0,0,1-1.3-1.46,1.764,1.764,0,0,1-.2-1.421,2.022,2.022,0,0,1,1.065-1.263,5.468,5.468,0,0,1,2.6-.473h3.512l3.986-3.946a14.615,14.615,0,0,1,3.828-2.921,10.488,10.488,0,0,1,4.5-.829q3.985,0,3.985,3.038a6.457,6.457,0,0,1-.237,1.777l-.907,2.88h3.353a2.884,2.884,0,0,1,1.855.513,1.649,1.649,0,0,1,.67,1.381,5.567,5.567,0,0,1-.118.907,3.587,3.587,0,0,1-3.788,2.763h-3.67l-4.736,15.587a6.214,6.214,0,0,0-.315,1.973,1.784,1.784,0,0,0,.631,1.579,3.106,3.106,0,0,0,1.776.435,16.607,16.607,0,0,0,2.526-.238,5.343,5.343,0,0,1,1.342-.2.724.724,0,0,1,.632.276,1.117,1.117,0,0,1,.237.75q.08,1.264-1.855,3.038a16.347,16.347,0,0,1-5.209,3.118,20.019,20.019,0,0,1-7.26,1.263A11.314,11.314,0,0,1,2383.492-1494.737Zm-63.258.04a6.471,6.471,0,0,1-2.525-5.17,14.58,14.58,0,0,1,1.145-5.249l3.472-9.076a3.985,3.985,0,0,0,.316-1.341,1.579,1.579,0,0,0-.553-1.263,1.792,1.792,0,0,0-1.263-.474,3.682,3.682,0,0,0-2.446,1.105,7.778,7.778,0,0,0-1.974,3.551v-.118l-3.985,12.825a5.236,5.236,0,0,0-.2,1.3,2.324,2.324,0,0,0,.316,1.3,3.989,3.989,0,0,0,.868.907,2.881,2.881,0,0,1,.632.75.808.808,0,0,1,.078.711,2.02,2.02,0,0,1-1.263,1.183,8.071,8.071,0,0,1-2.92.4H2295.57a4.114,4.114,0,0,1-2.407-.553,1.206,1.206,0,0,1-.513-1.421,2.4,2.4,0,0,1,1.341-1.3,5.735,5.735,0,0,0,1.579-1.223,5.376,5.376,0,0,0,1.065-2.209l9.59-31.491a2.9,2.9,0,0,0,.2-.947,1.748,1.748,0,0,0-.355-1.145,5.816,5.816,0,0,0-.907-.869,4.814,4.814,0,0,1-.907-.907.969.969,0,0,1-.119-.986q.394-1.461,3.985-2.525a26.2,26.2,0,0,1,7.5-1.066q3.671,0,5.406,1.38a4.58,4.58,0,0,1,1.737,3.789,8.783,8.783,0,0,1-.435,2.723l-3.394,11.089a14.185,14.185,0,0,1,5.209-4.459,14,14,0,0,1,5.959-1.263,8.458,8.458,0,0,1,6.2,2.328,8.1,8.1,0,0,1,2.368,6.038,12.143,12.143,0,0,1-.632,3.867l-3.828,12.43a1.943,1.943,0,0,0-.118.75,1.092,1.092,0,0,0,.2.711.8.8,0,0,0,.591.237,1.6,1.6,0,0,0,1.3-.632q.553-.671.75-.671c.212,0,.369.131.474.394a2.363,2.363,0,0,1,.2.986,5.552,5.552,0,0,1-1.185,3.552,9.067,9.067,0,0,1-3.709,2.841,13.944,13.944,0,0,1-5.84,1.1A10.667,10.667,0,0,1,2320.233-1494.7Zm-43.818.04a6.284,6.284,0,0,1-2.446-5.328,12.34,12.34,0,0,1,.355-2.841l1.026-4.025a6.268,6.268,0,0,0,.237-1.736,2.282,2.282,0,0,0-.947-2.052,6.04,6.04,0,0,0-3.157-.632h-2.367l-2.921,10.458a3.313,3.313,0,0,0-.119.947,2.649,2.649,0,0,0,.435,1.539,7.462,7.462,0,0,0,1.184,1.3,4.121,4.121,0,0,1,.908.868,1.315,1.315,0,0,1,.315.829,1.548,1.548,0,0,1-1.026,1.539,7.693,7.693,0,0,1-2.959.435h-15.863a4.2,4.2,0,0,1-2.447-.592,1.466,1.466,0,0,1-.552-1.7,1.778,1.778,0,0,1,.473-.907,4.666,4.666,0,0,1,1.026-.789,7.732,7.732,0,0,0,1.7-1.3,5.4,5.4,0,0,0,1.026-2.17l7.695-27.19a5.761,5.761,0,0,0,.237-1.579,3.1,3.1,0,0,0-.2-1.184q-.238-.474-.592-1.105a2.573,2.573,0,0,1-.592-1.342,3.913,3.913,0,0,1,.119-.671,1.894,1.894,0,0,1,1.105-1.183,7.393,7.393,0,0,1,2.643-.355h21.152a19.985,19.985,0,0,1,7.616,1.342,11.665,11.665,0,0,1,4.972,3.631,8.39,8.39,0,0,1,1.736,5.208,9.08,9.08,0,0,1-.394,2.644,10.08,10.08,0,0,1-3.788,5.722,14.418,14.418,0,0,1-6.985,2.565,6.853,6.853,0,0,1,4.538,1.776,5.334,5.334,0,0,1,1.5,3.947,11.338,11.338,0,0,1-.315,2.367l-.671,3.079a5.752,5.752,0,0,0-.118.868,1.95,1.95,0,0,0,.354,1.263,1.438,1.438,0,0,0,1.066.4,3.606,3.606,0,0,1,1.934.394q.591.355.434,1.381A5.868,5.868,0,0,1,2292.2-1496a9.433,9.433,0,0,1-3.552,2.289,15.446,15.446,0,0,1-5.6.907A10.835,10.835,0,0,1,2276.415-1494.658Zm-5.564-22.927h2.683a5.728,5.728,0,0,0,3.867-1.223,8.411,8.411,0,0,0,2.25-4.42,11.5,11.5,0,0,0,.315-2.21q0-3.353-3.669-3.354h-2.644Zm407.136,21.078a10.545,10.545,0,0,1-4.563-8.916,17.886,17.886,0,0,1,.56-4.193,18.305,18.305,0,0,1,4.993-8.349,25.253,25.253,0,0,1,9-5.705,32.217,32.217,0,0,1,11.408-2q9.384,0,13.819,3.325a10.366,10.366,0,0,1,4.434,8.689,16.756,16.756,0,0,1-.559,4.043,19.541,19.541,0,0,1-4.865,8.689,24.36,24.36,0,0,1-8.782,5.742,31.175,31.175,0,0,1-11.279,2Q2682.594-1493.183,2677.987-1496.507Zm18.123-21.534a39.98,39.98,0,0,0-3.831,8.538q-2.2,6.309-2.2,8.84a2.472,2.472,0,0,0,.473,1.776,1.949,1.949,0,0,0,1.334.454q1.421.113,2.97-2.154a45.939,45.939,0,0,0,3.918-8.953q2.109-5.856,2.109-8.538a2.668,2.668,0,0,0-.431-1.738,1.626,1.626,0,0,0-1.292-.491Q2697.747-1520.309,2696.11-1518.042Zm-63.307,21.534a10.544,10.544,0,0,1-4.564-8.916,17.938,17.938,0,0,1,.56-4.193,18.307,18.307,0,0,1,4.994-8.349,25.238,25.238,0,0,1,9-5.705,32.216,32.216,0,0,1,11.407-2q9.385,0,13.819,3.325a10.366,10.366,0,0,1,4.434,8.689,16.735,16.735,0,0,1-.56,4.043,19.534,19.534,0,0,1-4.865,8.689,24.353,24.353,0,0,1-8.782,5.742,31.169,31.169,0,0,1-11.279,2Q2637.409-1493.183,2632.8-1496.507Zm18.123-21.534a39.98,39.98,0,0,0-3.831,8.538q-2.2,6.309-2.2,8.84a2.477,2.477,0,0,0,.473,1.776,1.949,1.949,0,0,0,1.335.454q1.422.113,2.971-2.154a45.892,45.892,0,0,0,3.917-8.953q2.11-5.856,2.11-8.538a2.669,2.669,0,0,0-.43-1.738,1.626,1.626,0,0,0-1.292-.491Q2652.563-1520.309,2650.927-1518.042Zm118.573,21.119q-4.864-3.361-4.865-9.86a20.645,20.645,0,0,1,.517-4.231,17.4,17.4,0,0,1,7.577-11.183,25.354,25.354,0,0,1,14.12-3.777q8.782,0,12.7,2.417,3.918,2.456,3.918,6.271a8.307,8.307,0,0,1-.258,2.116q-1.033,4.005-5.769,5.705a32.215,32.215,0,0,1-11.106,1.738,45.476,45.476,0,0,1-6.071-.378q-.085,3.136,1.938,4.42a10.164,10.164,0,0,0,5.553,1.284,14.432,14.432,0,0,0,3.186-.339q1.507-.34,3.831-1.021a11.075,11.075,0,0,1,2.626-.6.693.693,0,0,1,.775.793,7.085,7.085,0,0,1-1.808,4.458,14.716,14.716,0,0,1-5.511,3.966,21.653,21.653,0,0,1-8.824,1.625Q2774.407-1493.523,2769.5-1496.923Zm14.938-23.008a11.617,11.617,0,0,0-2.023,3.173,26.1,26.1,0,0,0-1.678,5.025,2.952,2.952,0,0,0,.775.076,4.879,4.879,0,0,0,4.39-2.38,9.237,9.237,0,0,0,1.464-5.251q-.086-1.7-1.12-1.7A2.813,2.813,0,0,0,2784.438-1519.931Zm-38.967,25.464a10.7,10.7,0,0,1-3.186-2.078,20.283,20.283,0,0,1-2.238-2.72q-.9-1.4-1.378-1.4a1.258,1.258,0,0,0-.861.416,11.409,11.409,0,0,0-1.292,1.473,19.684,19.684,0,0,1-3.831,3.778,8.242,8.242,0,0,1-5.123,1.473,14.6,14.6,0,0,1-5.467-.982,9.612,9.612,0,0,1-3.875-2.57,5.105,5.105,0,0,1-1.421-3.476q0-3.324,5.037-6.082l17.693-9.52a10.988,10.988,0,0,0-2.066-1.814,3.548,3.548,0,0,0-1.895-.529,3.183,3.183,0,0,0-2.238.832,9.973,9.973,0,0,0-1.894,2.266,14.072,14.072,0,0,1-1.162,1.436,1.288,1.288,0,0,1-.99.491,5.518,5.518,0,0,1-3.7-1.322,4.53,4.53,0,0,1-1.593-3.627,6.42,6.42,0,0,1,1.076-3.552,7.465,7.465,0,0,1,3.013-2.682,9.825,9.825,0,0,1,4.564-1.021,9.636,9.636,0,0,1,5.9,1.587,16.869,16.869,0,0,1,3.745,3.967q.99,1.323,1.335,1.322a1.246,1.246,0,0,0,.775-.378,6.246,6.246,0,0,0,.775-.793,2.5,2.5,0,0,1,.517-.567,24.137,24.137,0,0,1,4-3.777,8.139,8.139,0,0,1,4.865-1.361,9.766,9.766,0,0,1,4.262.945,8.911,8.911,0,0,1,3.1,2.493,5.2,5.2,0,0,1,1.12,3.136,5.8,5.8,0,0,1-1.463,3.967,15.077,15.077,0,0,1-4.606,3.287l-14.594,7.632a5.916,5.916,0,0,0,4.046,2.039,4.366,4.366,0,0,0,2.841-1.02,20.944,20.944,0,0,0,2.841-2.984q.946-1.134,1.42-1.625a1.38,1.38,0,0,1,.99-.491,5.935,5.935,0,0,1,2.713.794,7.515,7.515,0,0,1,2.54,2.3,6.091,6.091,0,0,1,1.076,3.627,6.756,6.756,0,0,1-1.292,4.005,8.613,8.613,0,0,1-3.573,2.947,12.608,12.608,0,0,1-5.424,1.1A12.2,12.2,0,0,1,2745.471-1494.467Zm-169.087.755a4.845,4.845,0,0,1-2.238-.415,1.284,1.284,0,0,1-.818-1.172,1.672,1.672,0,0,1,.215-.755,2.329,2.329,0,0,1,.9-1.058q.6-.34.775-.415a9.178,9.178,0,0,0,1.766-1.247,4.623,4.623,0,0,0,1.162-2.077l8.438-26.031a4.891,4.891,0,0,0,.258-1.511,2.262,2.262,0,0,0-.258-1.133,7.3,7.3,0,0,0-.645-1.058,2.378,2.378,0,0,1-.6-1.284,3.384,3.384,0,0,1,.129-.643,1.8,1.8,0,0,1,1.206-1.133,8.923,8.923,0,0,1,2.841-.34h24.666a24.274,24.274,0,0,1,8.179,1.247,11.992,11.992,0,0,1,5.3,3.4,7.426,7.426,0,0,1,1.808,4.911,8.594,8.594,0,0,1-.473,2.909q-1.98,6.121-11.495,7.745a10.91,10.91,0,0,1,5.252,2.8,6.747,6.747,0,0,1,1.895,4.873,11.734,11.734,0,0,1-.517,3.136,11.581,11.581,0,0,1-6.114,6.989q-4.563,2.267-13,2.266Zm18.511-5.44h3.53a7.876,7.876,0,0,0,4.735-1.285,9.013,9.013,0,0,0,2.885-4.684,8.172,8.172,0,0,0,.517-2.682q0-3.249-4.3-3.249h-3.444Zm5.854-18.059h3.056a7.493,7.493,0,0,0,4.563-1.246,8.712,8.712,0,0,0,2.712-4.458,7.317,7.317,0,0,0,.474-2.456q0-3.174-4.047-3.173h-3.1Z" transform="translate(-3803.708 2820.404)"/>
    <g id="Group_24" data-name="Group 24" transform="translate(2532.783 -433.505)">
      <g id="Group_25" data-name="Group 25">
        <g id="svgexport-12" transform="translate(-4192.61 1701.037)">
          <path id="_UYuCWbZqnfIGAK7eKNMpT" d="M65.343,70.842A48.353,48.353,0,0,1,49.9,72.648v34.68a2,2,0,0,0,1.987,1.987H78.71a2,2,0,0,0,1.987-1.987V71.745A21.483,21.483,0,0,0,65.343,70.842Z" transform="translate(-33.192 -39.167)" fill="#c79c10"/>
          <path id="_oR1WlCMwOOzKu-xek6_Xz" d="M83.889,35.71H73.5V33a11.659,11.659,0,0,0,4.154-8.851A11.834,11.834,0,0,0,65.917,12.409a11.971,11.971,0,0,0-8.76,3.883,10.6,10.6,0,0,0-8.128-.813A13.59,13.59,0,0,0,37.288,8.616a13.451,13.451,0,0,0-11.47,6.412,10.294,10.294,0,0,0-1.987,20.23V79.241A8.769,8.769,0,0,0,32.592,88H64.743a8.809,8.809,0,0,0,8.76-8.67h6.412a11.2,11.2,0,0,0,11.2-11.2V42.844A7.169,7.169,0,0,0,83.889,35.71ZM20.67,25.324a5.859,5.859,0,0,1,5.87-5.87h.542a2.4,2.4,0,0,0,2.258-1.264,9.227,9.227,0,0,1,8.128-5.148,9.043,9.043,0,0,1,8.489,6.051,2.242,2.242,0,0,0,3.251,1.174,6.006,6.006,0,0,1,3.071-.813,5.922,5.922,0,0,1,3.974,1.535,2.1,2.1,0,0,0,1.9.542,2.316,2.316,0,0,0,1.626-1.084,7.126,7.126,0,1,1,6.232,10.567,7.035,7.035,0,0,1-5.419-2.529,2.224,2.224,0,0,0-1.716-.813h-.09a2.055,2.055,0,0,0-1.716.9,5.822,5.822,0,0,1-4.7,2.438,5.949,5.949,0,0,1-4.787-2.529,2.4,2.4,0,0,0-1.716-.993,1.964,1.964,0,0,0-1.806.723,8.955,8.955,0,0,1-6.5,2.8,8.408,8.408,0,0,1-4.7-1.355,2.168,2.168,0,0,0-2.529.09,5.523,5.523,0,0,1-3.522,1.174A5.559,5.559,0,0,1,20.67,25.324ZM68.085,79.331a3.393,3.393,0,0,1-3.342,3.342H32.5a3.393,3.393,0,0,1-3.342-3.342V35.8a10.534,10.534,0,0,0,2.348-.9,14.171,14.171,0,0,0,5.78,1.264,13.853,13.853,0,0,0,7.948-2.529A10.554,10.554,0,0,0,52.1,36.161,11.043,11.043,0,0,0,58.782,33.9a12.333,12.333,0,0,0,7.044,2.258,14.823,14.823,0,0,0,2.077-.181v43.35ZM84.793,68.222A4.857,4.857,0,0,1,79.916,73.1H73.5V42.032H83.889a.905.905,0,0,1,.9.9Z" transform="translate(-16.155 -8.616)" fill="#1f2b33"/>
          <path id="_aZtwwGl20quzdjxeCp4I3" d="M2.781,2.781,0,2.781A2.781,2.781,0,1,0,2.781,0,2.781,2.781,0,0,0,0,2.781" transform="translate(20.597 39.835)" fill="#fff"/>
          <path id="_F_8OplrbaW4wZWaeJl3Q_" d="M2.058,2.058,0,2.058A2.058,2.058,0,1,0,2.058,0,2.058,2.058,0,0,0,0,2.058" transform="translate(28.082 37.47)" fill="#fff"/>
        </g>
        <path id="svgexport-9" d="M.213,14.042a2.071,2.071,0,0,0,.638.142l9.22-1.418a.764.764,0,0,0,.567-.709V4.681a2,2,0,0,0,1.064.284,2.513,2.513,0,0,0,2.482-2.482,2.482,2.482,0,0,0-4.964,0v5.39l-7.8,1.206V6.1a5.908,5.908,0,0,0,1.064.284A2.513,2.513,0,0,0,4.964,3.9,2.513,2.513,0,0,0,2.482,1.418,2.513,2.513,0,0,0,0,3.9v9.574A.805.805,0,0,0,.213,14.042Z" transform="matrix(-0.978, -0.208, 0.208, -0.978, -4155.408, 1761.839)" fill="#fff"/>
      </g>
    </g>
  </g>
</svg>
