<svg xmlns="http://www.w3.org/2000/svg" width="997.677" height="120.077" viewBox="0 0 997.677 120.077">
  <g id="Group_26" data-name="Group 26" transform="translate(1659.827 -1267.531)">
    <path id="Union_2" data-name="Union 2" d="M142.906,94.53a12.976,12.976,0,0,1-5.432-4.6,11.022,11.022,0,0,1-1.852-6.088,11.988,11.988,0,0,1,.478-3.164,7.629,7.629,0,0,1,2.866-4.118,7.9,7.9,0,0,1,4.776-1.434,9.313,9.313,0,0,1,7.162,3.044,14.335,14.335,0,0,1,3.581,8.237,17.206,17.206,0,0,0,11.281-5.252q-4.835-.837-7.223-3.283-2.325-2.446-3.162-7.58L151.56,46.9a6.165,6.165,0,0,0-.835-2.568,1.652,1.652,0,0,0-1.373-.716,2.677,2.677,0,0,0-1.552.716,3.137,3.137,0,0,1-1.312.658q-.776,0-.776-1.612a9.434,9.434,0,0,1,.477-2.866,19.069,19.069,0,0,1,6.387-9.251A17.011,17.011,0,0,1,163.5,27.5q6.087,0,9.013,3.64t3.76,11.163l2.866,21.011q.3,2.387,1.73,2.386,1.732,0,4-3.1a36.082,36.082,0,0,0,4.476-8.834,17.394,17.394,0,0,1-4.356-5.909,16.777,16.777,0,0,1-1.552-7.162,17.338,17.338,0,0,1,.776-5.372,11.3,11.3,0,0,1,3.581-5.791,8.7,8.7,0,0,1,5.492-1.91,8.1,8.1,0,0,1,6.745,3.343q2.508,3.4,2.506,9.252a36.84,36.84,0,0,1-1.79,10.863A70.079,70.079,0,0,1,189.4,73.221a64.933,64.933,0,0,1-17.847,16.713q-10.088,6.328-20.115,6.327A19.434,19.434,0,0,1,142.906,94.53ZM452.09,94.7c-.156,0-.316,0-.474-.008a9.738,9.738,0,0,1-9.129-8.229,5.782,5.782,0,0,1-.068-1,5.5,5.5,0,1,1,4.668,5.636c1.641,2.864,8,2.018,9.807.792,3.677-2.491,4.235-7.912,3.4-11.852l-1.685-7.949c-11.924,3.051-25.217-6.718-24.155-19.814.838-10.326,8.745-17.617,15.018-23.285l-.843-3.978c-1.925-9.077-1.176-13.813.833-18.532,5.99-14.061,15.462-2.917,12.561,11.378-1.409,6.94-5.052,12.509-9.381,17.663l2.1,9.7c3.925-.724,8.364.591,12.148,5.376,4.835,6.118,1.1,17.787-6.454,20.9l1.669,7.7c2.28,9.565-2.467,15.5-10.014,15.5Zm-9.582-47.993c-5.776,6.519-3.473,15.6,1.718,20.316a14.715,14.715,0,0,0,13.939,2.966L454.27,51.616c-3.532.8-6.314,4-5.278,10.066.282,1.661,1.8,3.02,4.033,4.776-13.751-4.694-8.77-17.723-.015-20.777l-1.8-8.493C448.385,40.4,445.353,43.494,442.508,46.706Zm13.578,4.7,3.868,17.848A8.438,8.438,0,0,0,464,65.122c3.667-8.591-2.344-13.711-7.859-13.711Zm-5.257-38.058c-.743,2.073-1.786,5.551-.4,11.966l.508,2.343c2.508-2.28,4.6-4.292,5.638-6.145,4.732-8.467,3.069-13.2,2.382-14.206a1.481,1.481,0,0,0-1.293-.588C455.691,6.722,452.365,9.057,450.828,13.352ZM380.47,76.087a9.784,9.784,0,0,1-3.82-7.82,22.054,22.054,0,0,1,1.732-7.939L383.633,46.6a6.026,6.026,0,0,0,.478-2.028,2.389,2.389,0,0,0-.836-1.91,2.789,2.789,0,0,0-1.97-.717,5.326,5.326,0,0,0-3.344,1.433,12.728,12.728,0,0,0-3.044,4.476l-5.252,17.071a2.934,2.934,0,0,0-.18,1.134,1.465,1.465,0,0,0,.358,1.076,1.1,1.1,0,0,0,.9.358,2.54,2.54,0,0,0,1.97-.956q.776-1.015,1.074-1.014a.886.886,0,0,1,.776.6,3.574,3.574,0,0,1,.3,1.492,8.7,8.7,0,0,1-1.85,5.373,13.775,13.775,0,0,1-5.552,4.3,21.342,21.342,0,0,1-8.834,1.67q-6.326,0-10.027-2.864a9.565,9.565,0,0,1-3.82-7.82,22.743,22.743,0,0,1,1.671-7.939L351.7,46.6a6.031,6.031,0,0,0,.478-2.028,2.471,2.471,0,0,0-.776-1.91,2.93,2.93,0,0,0-1.97-.717,5.446,5.446,0,0,0-3.342,1.374,9.894,9.894,0,0,0-2.865,4.417L336.9,68.208a5.921,5.921,0,0,0-.358,1.97,3.274,3.274,0,0,0,.478,1.85,8.591,8.591,0,0,0,1.313,1.492,3.7,3.7,0,0,1,.955,1.075,1.379,1.379,0,0,1,.12,1.134,2.686,2.686,0,0,1-1.792,1.79,12.649,12.649,0,0,1-4.536.6H311.35a5.928,5.928,0,0,1-3.581-.836,1.91,1.91,0,0,1-.836-2.15,3.63,3.63,0,0,1,2.03-1.97,8.706,8.706,0,0,0,2.388-1.85,8.146,8.146,0,0,0,1.612-3.342l8.476-27.578a3.882,3.882,0,0,0,.178-1.312,2.883,2.883,0,0,0-.418-1.672,13.532,13.532,0,0,0-1.372-1.432,5.07,5.07,0,0,1-1.313-1.314,1.718,1.718,0,0,1-.12-1.552q.6-2.148,6.029-3.82a38.365,38.365,0,0,1,11.341-1.672,10.276,10.276,0,0,1,7.4,2.567,8.822,8.822,0,0,1,2.626,7.044,22.918,22.918,0,0,1,8.3-7.521,21.143,21.143,0,0,1,9.371-2.09,12.846,12.846,0,0,1,9.014,3.164,12.016,12.016,0,0,1,3.88,8.357q4.119-6.508,8.774-9.013a21.53,21.53,0,0,1,10.267-2.507,12.8,12.8,0,0,1,9.371,3.522,12.251,12.251,0,0,1,3.58,9.133,18.366,18.366,0,0,1-.954,5.85l-5.79,18.8a2.293,2.293,0,0,0-.24,1.134,1.465,1.465,0,0,0,.358,1.076,1.219,1.219,0,0,0,.9.358,2.542,2.542,0,0,0,1.97-.956c.557-.677.916-1.014,1.074-1.014a.886.886,0,0,1,.776.6,3.57,3.57,0,0,1,.3,1.492,8.4,8.4,0,0,1-1.791,5.373,13.714,13.714,0,0,1-5.61,4.3,21.355,21.355,0,0,1-8.835,1.67Q384.171,78.951,380.47,76.087Zm-100.1,0a9.788,9.788,0,0,1-3.82-7.82,22.054,22.054,0,0,1,1.732-7.939L283.534,46.6a6.024,6.024,0,0,0,.478-2.028,2.389,2.389,0,0,0-.836-1.91,2.712,2.712,0,0,0-1.91-.717,5.575,5.575,0,0,0-3.7,1.671,11.777,11.777,0,0,0-2.984,5.372v-.178l-6.028,19.4a7.929,7.929,0,0,0-.3,1.97,3.517,3.517,0,0,0,.478,1.97,6.024,6.024,0,0,0,1.314,1.372A4.389,4.389,0,0,1,271,74.653a1.222,1.222,0,0,1,.118,1.076,3.054,3.054,0,0,1-1.91,1.79,12.211,12.211,0,0,1-4.418.6H243.064a6.221,6.221,0,0,1-3.64-.836,1.825,1.825,0,0,1-.776-2.15,3.631,3.631,0,0,1,2.029-1.97,8.671,8.671,0,0,0,2.388-1.85,8.136,8.136,0,0,0,1.612-3.342l14.5-47.633a4.394,4.394,0,0,0,.3-1.432,2.643,2.643,0,0,0-.538-1.732,8.8,8.8,0,0,0-1.372-1.314,7.267,7.267,0,0,1-1.372-1.372,1.465,1.465,0,0,1-.18-1.492q.6-2.209,6.028-3.82a39.622,39.622,0,0,1,11.341-1.612q5.552,0,8.178,2.088a6.928,6.928,0,0,1,2.628,5.731,13.286,13.286,0,0,1-.658,4.118L278.4,36.274a21.456,21.456,0,0,1,7.879-6.745,21.166,21.166,0,0,1,9.013-1.91,12.8,12.8,0,0,1,9.372,3.522,12.247,12.247,0,0,1,3.581,9.133,18.375,18.375,0,0,1-.955,5.85l-5.79,18.8a2.937,2.937,0,0,0-.178,1.134,1.653,1.653,0,0,0,.3,1.076,1.213,1.213,0,0,0,.894.358,2.429,2.429,0,0,0,1.97-.956q.837-1.015,1.134-1.014.477,0,.717.6a3.569,3.569,0,0,1,.3,1.492,8.4,8.4,0,0,1-1.792,5.373,13.708,13.708,0,0,1-5.61,4.3,21.091,21.091,0,0,1-8.834,1.67Q284.13,78.951,280.37,76.087Zm-72.4-.06a9.694,9.694,0,0,1-3.88-8.118,13.719,13.719,0,0,1,.776-4.6l6.088-18.923a9.593,9.593,0,0,0,.478-2.566,5.594,5.594,0,0,0-.9-3.224,13.659,13.659,0,0,0-2.566-2.806A10.982,10.982,0,0,1,206,33.588a2.668,2.668,0,0,1-.3-2.149,3.058,3.058,0,0,1,1.611-1.91,8.271,8.271,0,0,1,3.94-.716h5.312l6.03-5.968a22.1,22.1,0,0,1,5.79-4.418,15.863,15.863,0,0,1,6.805-1.254q6.028,0,6.028,4.6a9.767,9.767,0,0,1-.358,2.687l-1.372,4.356h5.072a4.362,4.362,0,0,1,2.806.776,2.494,2.494,0,0,1,1.014,2.09,8.413,8.413,0,0,1-.178,1.372,5.426,5.426,0,0,1-5.73,4.179h-5.551l-7.163,23.577a9.4,9.4,0,0,0-.476,2.984,2.7,2.7,0,0,0,.954,2.388,4.7,4.7,0,0,0,2.686.658,25.127,25.127,0,0,0,3.82-.359,8.08,8.08,0,0,1,2.029-.3,1.1,1.1,0,0,1,.956.418,1.69,1.69,0,0,1,.358,1.134q.121,1.911-2.805,4.6a24.732,24.732,0,0,1-7.879,4.716,30.283,30.283,0,0,1-10.982,1.91Q211.908,78.951,207.968,76.027Zm-95.683.06a9.788,9.788,0,0,1-3.82-7.82,22.054,22.054,0,0,1,1.732-7.939L115.448,46.6a6.024,6.024,0,0,0,.478-2.028,2.388,2.388,0,0,0-.836-1.91,2.71,2.71,0,0,0-1.91-.717,5.569,5.569,0,0,0-3.7,1.671,11.765,11.765,0,0,0-2.985,5.372v-.178l-6.028,19.4a7.916,7.916,0,0,0-.3,1.97,3.515,3.515,0,0,0,.478,1.97,6.028,6.028,0,0,0,1.314,1.372,4.361,4.361,0,0,1,.956,1.134,1.222,1.222,0,0,1,.118,1.076,3.055,3.055,0,0,1-1.91,1.79,12.21,12.21,0,0,1-4.417.6H74.979a6.222,6.222,0,0,1-3.64-.836,1.825,1.825,0,0,1-.776-2.15,3.631,3.631,0,0,1,2.028-1.97,8.676,8.676,0,0,0,2.388-1.85,8.136,8.136,0,0,0,1.611-3.342L91.1,20.337a4.385,4.385,0,0,0,.3-1.432,2.646,2.646,0,0,0-.537-1.732,8.8,8.8,0,0,0-1.372-1.314,7.277,7.277,0,0,1-1.372-1.372A1.466,1.466,0,0,1,87.932,13q.6-2.209,6.028-3.82A39.638,39.638,0,0,1,105.3,7.564q5.552,0,8.177,2.088a6.928,6.928,0,0,1,2.628,5.731,13.285,13.285,0,0,1-.658,4.118l-5.133,16.773a21.455,21.455,0,0,1,7.879-6.745,21.169,21.169,0,0,1,9.014-1.91,12.793,12.793,0,0,1,9.371,3.522,12.246,12.246,0,0,1,3.582,9.133,18.368,18.368,0,0,1-.956,5.85l-5.79,18.8a2.942,2.942,0,0,0-.178,1.134,1.652,1.652,0,0,0,.3,1.076,1.216,1.216,0,0,0,.894.358,2.427,2.427,0,0,0,1.97-.956q.837-1.015,1.134-1.014c.32,0,.558.2.718.6a3.574,3.574,0,0,1,.3,1.492,8.4,8.4,0,0,1-1.792,5.373,13.715,13.715,0,0,1-5.61,4.3,21.091,21.091,0,0,1-8.834,1.67Q116.044,78.951,112.285,76.087Zm-66.279.06a9.5,9.5,0,0,1-3.7-8.059,18.663,18.663,0,0,1,.537-4.3L44.394,57.7a9.473,9.473,0,0,0,.358-2.626,3.452,3.452,0,0,0-1.432-3.1,9.137,9.137,0,0,0-4.776-.956h-3.58L30.546,66.835a5.015,5.015,0,0,0-.179,1.432,4.008,4.008,0,0,0,.658,2.328,11.282,11.282,0,0,0,1.79,1.97,6.235,6.235,0,0,1,1.373,1.312,1.989,1.989,0,0,1,.477,1.254,2.341,2.341,0,0,1-1.552,2.328,11.635,11.635,0,0,1-4.476.658H4.642a6.353,6.353,0,0,1-3.7-.9A2.218,2.218,0,0,1,.1,74.653a2.691,2.691,0,0,1,.716-1.372,7.061,7.061,0,0,1,1.552-1.194,11.7,11.7,0,0,0,2.567-1.97,8.165,8.165,0,0,0,1.552-3.282L18.131,25.709a8.713,8.713,0,0,0,.358-2.388,4.686,4.686,0,0,0-.3-1.79q-.36-.716-.9-1.672a3.891,3.891,0,0,1-.9-2.03,5.919,5.919,0,0,1,.18-1.014,2.866,2.866,0,0,1,1.672-1.79,11.183,11.183,0,0,1,4-.538H54.243a30.232,30.232,0,0,1,11.52,2.029,17.644,17.644,0,0,1,7.521,5.492,12.691,12.691,0,0,1,2.626,7.878,13.731,13.731,0,0,1-.6,4,15.246,15.246,0,0,1-5.73,8.655,21.808,21.808,0,0,1-10.565,3.88q4.6.357,6.864,2.686a8.069,8.069,0,0,1,2.268,5.969,17.137,17.137,0,0,1-.477,3.58l-1.016,4.657a8.706,8.706,0,0,0-.178,1.312,2.95,2.95,0,0,0,.536,1.91,2.175,2.175,0,0,0,1.612.6,5.455,5.455,0,0,1,2.925.6q.894.537.656,2.09a8.879,8.879,0,0,1-2.328,4.3,14.269,14.269,0,0,1-5.372,3.462,23.365,23.365,0,0,1-8.475,1.372Q49.766,78.951,46.006,76.147ZM37.59,41.467h4.058a8.664,8.664,0,0,0,5.85-1.85q2.151-1.791,3.4-6.685a17.4,17.4,0,0,0,.477-3.344q0-5.072-5.55-5.074h-4ZM653.417,73.349a15.95,15.95,0,0,1-6.9-13.487,27.061,27.061,0,0,1,.847-6.342,27.687,27.687,0,0,1,7.552-12.629,38.2,38.2,0,0,1,13.609-8.629,48.734,48.734,0,0,1,17.256-3.029q14.194,0,20.9,5.029a15.68,15.68,0,0,1,6.706,13.144,25.339,25.339,0,0,1-.846,6.115,29.556,29.556,0,0,1-7.358,13.144A36.844,36.844,0,0,1,691.9,75.349a47.153,47.153,0,0,1-17.06,3.029Q660.384,78.378,653.417,73.349ZM680.83,40.777q-2.41,3.429-5.8,12.915-3.32,9.542-3.32,13.371a3.739,3.739,0,0,0,.716,2.686,2.948,2.948,0,0,0,2.018.686q2.148.172,4.493-3.258,2.344-3.486,5.926-13.543,3.19-8.858,3.191-12.915a4.035,4.035,0,0,0-.652-2.628,2.459,2.459,0,0,0-1.953-.743Q683.3,37.348,680.83,40.777ZM585.073,73.349a15.948,15.948,0,0,1-6.9-13.487,27.136,27.136,0,0,1,.847-6.342,27.69,27.69,0,0,1,7.554-12.629,38.174,38.174,0,0,1,13.609-8.629,48.731,48.731,0,0,1,17.255-3.029q14.2,0,20.9,5.029a15.679,15.679,0,0,1,6.707,13.144,25.3,25.3,0,0,1-.847,6.115,29.544,29.544,0,0,1-7.358,13.144,36.834,36.834,0,0,1-13.284,8.685,47.143,47.143,0,0,1-17.06,3.029Q592.039,78.378,585.073,73.349Zm27.413-32.572q-2.41,3.429-5.8,12.915-3.322,9.542-3.322,13.371a3.747,3.747,0,0,0,.716,2.686,2.95,2.95,0,0,0,2.019.686q2.15.172,4.494-3.258,2.344-3.486,5.925-13.543,3.192-8.858,3.191-12.915a4.036,4.036,0,0,0-.651-2.628,2.459,2.459,0,0,0-1.953-.743Q614.961,37.348,612.486,40.777ZM791.837,72.721q-7.357-5.085-7.358-14.915a31.22,31.22,0,0,1,.782-6.4q2.606-11.2,11.461-16.916,8.791-5.713,21.358-5.713,13.283,0,19.208,3.656,5.926,3.714,5.926,9.486a12.564,12.564,0,0,1-.391,3.2q-1.562,6.058-8.726,8.63a48.727,48.727,0,0,1-16.8,2.628,68.788,68.788,0,0,1-9.182-.572q-.129,4.743,2.931,6.685,3,1.944,8.4,1.943a21.834,21.834,0,0,0,4.819-.513q2.279-.515,5.8-1.544a16.754,16.754,0,0,1,3.972-.913,1.048,1.048,0,0,1,1.172,1.2q.063,3.2-2.735,6.744a22.26,22.26,0,0,1-8.335,6,32.751,32.751,0,0,1-13.348,2.457Q799.26,77.863,791.837,72.721Zm22.6-34.8a17.572,17.572,0,0,0-3.06,4.8,39.459,39.459,0,0,0-2.539,7.6,4.462,4.462,0,0,0,1.172.114,7.38,7.38,0,0,0,6.641-3.6,13.973,13.973,0,0,0,2.215-7.942q-.131-2.573-1.693-2.572A4.254,4.254,0,0,0,814.432,37.92ZM755.491,76.435a16.181,16.181,0,0,1-4.819-3.143,30.668,30.668,0,0,1-3.385-4.114q-1.368-2.115-2.084-2.116a1.9,1.9,0,0,0-1.3.629,17.255,17.255,0,0,0-1.953,2.228,29.776,29.776,0,0,1-5.8,5.715,12.467,12.467,0,0,1-7.748,2.228,22.082,22.082,0,0,1-8.269-1.485,14.538,14.538,0,0,1-5.86-3.887,7.722,7.722,0,0,1-2.149-5.258q0-5.027,7.619-9.2l26.762-14.4a16.622,16.622,0,0,0-3.126-2.743,5.366,5.366,0,0,0-2.865-.8,4.815,4.815,0,0,0-3.386,1.258,15.085,15.085,0,0,0-2.865,3.428,21.305,21.305,0,0,1-1.758,2.171,1.948,1.948,0,0,1-1.5.743,8.347,8.347,0,0,1-5.6-2A6.852,6.852,0,0,1,723,40.205a9.711,9.711,0,0,1,1.628-5.372,11.292,11.292,0,0,1,4.558-4.057,14.86,14.86,0,0,1,6.9-1.544q5.73,0,8.921,2.4a25.514,25.514,0,0,1,5.664,6q1.5,2,2.019,2a1.885,1.885,0,0,0,1.172-.572,9.45,9.45,0,0,0,1.172-1.2,3.78,3.78,0,0,1,.781-.858,36.5,36.5,0,0,1,6.055-5.713,12.311,12.311,0,0,1,7.358-2.058,14.771,14.771,0,0,1,6.446,1.429,13.481,13.481,0,0,1,4.688,3.771,7.872,7.872,0,0,1,1.693,4.743,8.775,8.775,0,0,1-2.214,6,22.8,22.8,0,0,1-6.967,4.971L750.8,61.692q3.124,3.085,6.12,3.085a6.6,6.6,0,0,0,4.3-1.542,31.68,31.68,0,0,0,4.3-4.514q1.431-1.715,2.148-2.457a2.088,2.088,0,0,1,1.5-.743,8.977,8.977,0,0,1,4.1,1.2,11.365,11.365,0,0,1,3.841,3.485,9.214,9.214,0,0,1,1.628,5.486,10.22,10.22,0,0,1-1.953,6.058,13.029,13.029,0,0,1-5.4,4.457,19.07,19.07,0,0,1-8.2,1.657A18.446,18.446,0,0,1,755.491,76.435ZM499.733,77.578a7.329,7.329,0,0,1-3.386-.628,1.942,1.942,0,0,1-1.237-1.772,2.529,2.529,0,0,1,.325-1.142,3.522,3.522,0,0,1,1.367-1.6q.913-.515,1.172-.628a13.877,13.877,0,0,0,2.671-1.887,6.989,6.989,0,0,0,1.758-3.142L515.164,27.4a7.4,7.4,0,0,0,.391-2.286,3.421,3.421,0,0,0-.391-1.714,11.033,11.033,0,0,0-.976-1.6,3.6,3.6,0,0,1-.912-1.943,5.118,5.118,0,0,1,.195-.972,2.729,2.729,0,0,1,1.824-1.714,13.5,13.5,0,0,1,4.3-.515H556.9a36.718,36.718,0,0,1,12.372,1.887,18.138,18.138,0,0,1,8.01,5.143,11.232,11.232,0,0,1,2.735,7.429,13,13,0,0,1-.716,4.4q-3,9.259-17.387,11.714a16.5,16.5,0,0,1,7.945,4.23,10.206,10.206,0,0,1,2.866,7.371,17.743,17.743,0,0,1-.781,4.743A17.516,17.516,0,0,1,562.7,74.15q-6.9,3.429-19.664,3.428Zm28-8.228h5.339a11.913,11.913,0,0,0,7.162-1.944q2.737-2,4.363-7.086a12.361,12.361,0,0,0,.781-4.057q0-4.915-6.511-4.914h-5.21Zm8.855-27.316h4.623a11.334,11.334,0,0,0,6.9-1.885q2.541-1.885,4.1-6.743a11.069,11.069,0,0,0,.717-3.715q0-4.8-6.122-4.8h-4.687Z" transform="translate(-1505.364 1279.439)" fill="#fff"/>
    <g id="Group_24" data-name="Group 24" transform="translate(-1659.827 1267.531)">
      <g id="Group_25" data-name="Group 25">
        <g id="svgexport-12">
          <path id="_UYuCWbZqnfIGAK7eKNMpT" d="M73.26,71.338A73.138,73.138,0,0,1,49.9,74.071v52.457a3.032,3.032,0,0,0,3.005,3.005H93.477a3.032,3.032,0,0,0,3.005-3.005V72.7C96.619,72.7,86.51,67.377,73.26,71.338Z" transform="translate(-24.627 -23.427)" fill="#f7c931"/>
          <path id="_oR1WlCMwOOzKu-xek6_Xz" d="M118.609,49.6H102.9V45.5a17.635,17.635,0,0,0,6.284-13.387A17.9,17.9,0,0,0,91.425,14.353a18.107,18.107,0,0,0-13.251,5.874A16.026,16.026,0,0,0,65.879,19,20.556,20.556,0,0,0,48.12,8.616a20.345,20.345,0,0,0-17.349,9.7,15.57,15.57,0,0,0-3.005,30.6v66.527a13.263,13.263,0,0,0,13.251,13.251H89.649A13.324,13.324,0,0,0,102.9,115.578h9.7a16.936,16.936,0,0,0,16.939-16.939V60.389A10.844,10.844,0,0,0,118.609,49.6ZM22.985,33.888a8.862,8.862,0,0,1,8.879-8.879h.82A3.633,3.633,0,0,0,36.1,23.1a13.956,13.956,0,0,1,12.295-7.787,13.678,13.678,0,0,1,12.841,9.153,3.391,3.391,0,0,0,4.918,1.776A9.085,9.085,0,0,1,70.8,25.009a8.957,8.957,0,0,1,6.011,2.322,3.17,3.17,0,0,0,2.869.82,3.5,3.5,0,0,0,2.459-1.639,10.779,10.779,0,1,1,9.426,15.983,10.641,10.641,0,0,1-8.2-3.825,3.364,3.364,0,0,0-2.6-1.229h-.137a3.109,3.109,0,0,0-2.6,1.366,8.807,8.807,0,0,1-7.1,3.688,9,9,0,0,1-7.24-3.825,3.625,3.625,0,0,0-2.6-1.5,2.97,2.97,0,0,0-2.732,1.093,13.546,13.546,0,0,1-9.836,4.235,12.717,12.717,0,0,1-7.1-2.049,3.279,3.279,0,0,0-3.825.137,8.355,8.355,0,0,1-5.328,1.776A8.408,8.408,0,0,1,22.985,33.888ZM94.7,115.578a5.132,5.132,0,0,1-5.054,5.054H40.88a5.132,5.132,0,0,1-5.054-5.054V49.734a15.933,15.933,0,0,0,3.552-1.366,21.434,21.434,0,0,0,8.743,1.912,20.954,20.954,0,0,0,12.021-3.825,15.964,15.964,0,0,0,10.382,3.825,16.7,16.7,0,0,0,10.109-3.415,18.654,18.654,0,0,0,10.655,3.415,22.42,22.42,0,0,0,3.142-.273v65.571Zm25.272-16.8a7.346,7.346,0,0,1-7.377,7.377h-9.7V59.16h15.71a1.369,1.369,0,0,1,1.366,1.366Z" transform="translate(-16.155 -8.616)" fill="#fff"/>
          <path id="_aZtwwGl20quzdjxeCp4I3" d="M4.207,4.207,0,4.207A4.207,4.207,0,1,0,4.207,0,4.207,4.207,0,0,0,0,4.207" transform="translate(31.155 60.254)" fill="#fff"/>
          <path id="_F_8OplrbaW4wZWaeJl3Q_" d="M3.114,3.114,0,3.114A3.114,3.114,0,1,0,3.114,0,3.114,3.114,0,0,0,0,3.114" transform="translate(42.476 56.677)" fill="#fff"/>
        </g>
        <path id="svgexport-9" d="M.322,21.24a3.132,3.132,0,0,0,.965.215l13.945-2.145a1.155,1.155,0,0,0,.858-1.073V7.08a3.027,3.027,0,0,0,1.609.429,3.8,3.8,0,0,0,3.754-3.754,3.754,3.754,0,0,0-7.509,0v8.153l-11.8,1.824V9.225a8.937,8.937,0,0,0,1.609.429A3.8,3.8,0,0,0,7.509,5.9,3.8,3.8,0,0,0,3.754,2.145,3.8,3.8,0,0,0,0,5.9V20.382A1.218,1.218,0,0,0,.322,21.24Z" transform="matrix(-0.978, -0.208, 0.208, -0.978, 56.271, 91.969)" fill="#fff"/>
      </g>
    </g>
  </g>
</svg>
