<svg xmlns="http://www.w3.org/2000/svg" width="1095.09" height="1159.74" viewBox="0 0 1095.09 1159.74">
  <g id="Group_15" data-name="Group 15" transform="translate(4192.61 -1701.037)">
    <g id="svgexport-12" transform="translate(-4323.729 1651.293)">
      <path id="_UYuCWbZqnfIGAK7eKNMpT" d="M275.515,84.023C162.048,118.327,49.9,110.411,49.9,110.411V617.055a29.284,29.284,0,0,0,29.026,29.026H470.784a29.284,29.284,0,0,0,29.027-29.026V97.217C501.13,97.217,403.5,45.761,275.515,84.023Z" transform="translate(325.31 428.464)" fill="#c79c10"/>
      <path id="_oR1WlCMwOOzKu-xek6_Xz" d="M1005.694,404.432H853.965V364.85c36.943-31.665,60.692-77.844,60.692-129.3-1.319-95-77.844-171.52-171.52-171.52-48.817,0-95,21.11-127.98,56.734-35.623-19.791-79.163-23.749-118.745-11.874C462.107,48.2,396.138,8.616,324.891,8.616a196.5,196.5,0,0,0-167.562,93.676C79.485,107.57,16.155,172.22,16.155,252.7c0,69.927,47.5,127.98,112.148,145.132v642.541c0,71.247,58.053,127.98,127.98,127.98h469.7c69.927,0,126.661-56.734,127.98-126.661h93.676c91.038,0,163.6-73.886,163.6-163.6V508.663C1111.245,450.61,1063.747,404.432,1005.694,404.432ZM82.124,252.7a85.589,85.589,0,0,1,85.76-85.76H175.8c13.194,1.319,26.388-6.6,32.985-18.471,22.43-44.859,68.608-75.205,118.745-75.205,55.414,0,105.551,35.623,124.022,88.4a32.751,32.751,0,0,0,47.5,17.152c13.194-7.916,29.027-11.874,44.859-11.874a86.513,86.513,0,0,1,58.053,22.43c7.916,6.6,17.152,10.555,27.707,7.916,10.555-1.319,18.471-7.916,23.749-15.833,18.471-32.985,52.775-54.095,91.038-54.095a104.232,104.232,0,1,1-79.163,171.52,32.493,32.493,0,0,0-25.068-11.874H638.9A30.025,30.025,0,0,0,613.836,300.2a85.059,85.059,0,0,1-68.608,35.623c-27.707,0-54.095-14.513-69.927-36.943-5.278-7.916-14.513-13.194-25.068-14.513a28.686,28.686,0,0,0-26.388,10.555,130.829,130.829,0,0,1-95,40.9c-25.068,0-48.817-6.6-68.608-19.791-11.874-7.916-26.388-6.6-36.943,1.319-14.513,11.874-32.985,17.152-51.456,17.152C120.386,338.462,82.124,300.2,82.124,252.7ZM774.8,1041.7c0,26.388-22.429,48.817-48.817,48.817H254.964c-26.388,0-48.817-22.43-48.817-48.817V405.751c11.874-2.639,23.749-7.916,34.3-13.194a207.021,207.021,0,0,0,84.441,18.471c42.22,0,81.8-13.194,116.106-36.943A154.182,154.182,0,0,0,541.27,411.029,161.328,161.328,0,0,0,638.9,378.044c30.346,21.11,65.969,32.985,102.912,32.985a216.54,216.54,0,0,0,30.346-2.639V1041.7Zm244.086-162.284a70.951,70.951,0,0,1-71.247,71.247H853.965V496.789h151.729a13.221,13.221,0,0,1,13.194,13.194Z" transform="translate(114.965 41.128)" fill="#1f2b33"/>
      <path id="_aZtwwGl20quzdjxeCp4I3" d="M40.635,40.635,0,40.635A40.635,40.635,0,1,0,40.635,0,40.635,40.635,0,0,0,0,40.635" transform="translate(432.028 631.693)" fill="#fff"/>
      <path id="_F_8OplrbaW4wZWaeJl3Q_" d="M30.072,30.072,0,30.072A30.072,30.072,0,1,0,30.072,0,30.072,30.072,0,0,0,0,30.072" transform="translate(541.367 597.149)" fill="#fff"/>
    </g>
    <path id="svgexport-9" d="M5.108,207.14c3.108,1.036,6.216,2.072,9.325,2.072l134.688-20.721c4.144-1.036,8.288-5.18,8.288-10.361V70.38a29.237,29.237,0,0,0,15.541,4.144c19.685,0,36.262-16.577,36.262-36.262S192.635,2,172.95,2s-36.262,16.577-36.262,36.262V117L22.721,134.616V91.1a86.314,86.314,0,0,0,15.541,4.144c19.685,0,36.262-16.577,36.262-36.262S57.947,22.721,38.262,22.721,2,39.3,2,58.983V198.851A11.765,11.765,0,0,0,5.108,207.14Z" transform="matrix(-0.978, -0.208, 0.208, -0.978, -3647.584, 2591.678)" fill="#fff"/>
  </g>
</svg>
