<svg id="_5113680251606259998" data-name="5113680251606259998" xmlns="http://www.w3.org/2000/svg" width="240.189" height="243.784" viewBox="0 0 240.189 243.784">
  <path id="Path_2" data-name="Path 2" d="M120.095,0c66.322,0,120.095,54.578,120.095,121.892S186.417,243.784,120.095,243.784,0,189.207,0,121.892,53.773,0,120.095,0Zm0,112.389a9.5,9.5,0,1,1-9.363,9.5,9.435,9.435,0,0,1,9.363-9.5Zm0-29.084c20.993,0,38.018,17.28,38.018,38.587s-17.025,38.587-38.018,38.587-38-17.28-38-38.587S99.1,83.3,120.095,83.3ZM26.564,99.1a120.667,120.667,0,0,1,28.87-44.6,118.342,118.342,0,0,1,44.957-27.6l3.049,9.364A108.632,108.632,0,0,0,62.158,61.6a110.73,110.73,0,0,0-26.505,40.928L26.564,99.1Zm30.356,7.2A75.74,75.74,0,0,1,75.04,78.286a73.985,73.985,0,0,1,28.245-17.32l3.03,9.364A64.84,64.84,0,0,0,81.764,85.388,65.932,65.932,0,0,0,65.99,109.731L56.92,106.3Zm127.366,29.679a75.74,75.74,0,0,1-18.12,28.013,73.985,73.985,0,0,1-28.245,17.32l-3.03-9.364a64.446,64.446,0,0,0,24.551-15.058,65.932,65.932,0,0,0,15.774-24.343l9.07,3.432Zm30.356,7.2a120.99,120.99,0,0,1-28.87,44.6,118.1,118.1,0,0,1-44.957,27.6l-3.049-9.364a108.632,108.632,0,0,0,41.283-25.335,110.73,110.73,0,0,0,26.505-40.928l9.089,3.432Z" fill="#fff" fill-rule="evenodd"/>
</svg>
